<?xml version="1.0" encoding="utf-8"?>
<!-- Generator: Adobe Illustrator 16.0.0, SVG Export Plug-In . SVG Version: 6.00 Build 0)  -->
<!DOCTYPE svg PUBLIC "-//W3C//DTD SVG 1.1//EN" "http://www.w3.org/Graphics/SVG/1.1/DTD/svg11.dtd">
<svg version="1.1" id="Layer_1" xmlns="http://www.w3.org/2000/svg" xmlns:xlink="http://www.w3.org/1999/xlink" x="0px" y="0px"
	 width="500px" height="300px" viewBox="0 0 500 300" enable-background="new 0 0 500 300" xml:space="preserve">
<g>
	<g>
		<path fill="#CCB25D" d="M250,0c-59.909,0-108.648,48.739-108.648,108.648c0,74.348,97.229,183.497,101.369,188.106
			c3.889,4.331,10.678,4.324,14.559,0c4.14-4.609,101.369-113.758,101.369-188.106C358.647,48.739,309.908,0,250,0z M250,163.312
			c-30.142,0-54.663-24.522-54.663-54.665c0-30.142,24.522-54.663,54.663-54.663c30.141,0,54.662,24.522,54.662,54.664
			C304.662,138.791,280.141,163.312,250,163.312z"/>
	</g>
</g>
</svg>
